<svg version="1.1" viewBox="0.0 0.0 340.3280839895013 388.81627296587925" fill="none" stroke="none" stroke-linecap="square" stroke-miterlimit="10" xmlns:xlink="http://www.w3.org/1999/xlink" xmlns="http://www.w3.org/2000/svg"><clipPath id="p.0"><path d="m0 0l340.3281 0l0 388.81628l-340.3281 0l0 -388.81628z" clip-rule="nonzero"/></clipPath><g clip-path="url(#p.0)"><path fill="#000000" fill-opacity="0.0" d="m0 0l340.3281 0l0 388.81628l-340.3281 0z" fill-rule="evenodd"/><path fill="#dbd3cd" d="m0.0036230972 0l341.82675 0l0 389.6063l-341.82675 0z" fill-rule="evenodd"/><path stroke="#f8f9fa" stroke-width="1.0" stroke-linejoin="round" stroke-linecap="butt" d="m0.0036230972 0l341.82675 0l0 389.6063l-341.82675 0z" fill-rule="evenodd"/><path fill="#000000" fill-opacity="0.0" d="m0 29.361238c19.19698 6.592619 78.95574 42.961517 115.18188 39.55571c36.226143 -3.4058075 64.40116 -56.584316 102.174965 -59.990555c37.773804 -3.4062357 103.723236 32.960945 124.467865 39.55314" fill-rule="evenodd"/><path stroke="#000000" stroke-width="4.0" stroke-linejoin="round" stroke-linecap="butt" d="m0 29.361238c19.19698 6.592619 78.95574 42.961517 115.18188 39.55571c36.226143 -3.4058075 64.40116 -56.584316 102.174965 -59.990555c37.773804 -3.4062357 103.723236 32.960945 124.467865 39.55314" fill-rule="evenodd"/><path fill="#000000" fill-opacity="0.0" d="m0 133.36124c19.19698 6.592621 78.95574 42.961517 115.18188 39.55571c36.226143 -3.4058075 64.40116 -56.58432 102.174965 -59.990555c37.773804 -3.4062347 103.723236 32.960953 124.467865 39.553146" fill-rule="evenodd"/><path stroke="#000000" stroke-width="4.0" stroke-linejoin="round" stroke-linecap="butt" d="m0 133.36124c19.19698 6.592621 78.95574 42.961517 115.18188 39.55571c36.226143 -3.4058075 64.40116 -56.58432 102.174965 -59.990555c37.773804 -3.4062347 103.723236 32.960953 124.467865 39.553146" fill-rule="evenodd"/><path fill="#000000" fill-opacity="0.0" d="m0 237.36124c19.19698 6.592621 78.95574 42.961517 115.18188 39.555725c36.226143 -3.4058228 64.40116 -56.584335 102.174965 -59.99057c37.773804 -3.4062347 103.723236 32.960953 124.467865 39.55313" fill-rule="evenodd"/><path stroke="#000000" stroke-width="4.0" stroke-linejoin="round" stroke-linecap="butt" d="m0 237.36124c19.19698 6.592621 78.95574 42.961517 115.18188 39.555725c36.226143 -3.4058228 64.40116 -56.584335 102.174965 -59.99057c37.773804 -3.4062347 103.723236 32.960953 124.467865 39.55313" fill-rule="evenodd"/><path fill="#000000" fill-opacity="0.0" d="m0 341.36124c19.19698 6.592621 78.95574 42.961517 115.18188 39.555725c36.226143 -3.4058228 64.40116 -56.58432 102.174965 -59.99057c37.773804 -3.4062195 103.723236 32.960938 124.467865 39.55313" fill-rule="evenodd"/><path stroke="#000000" stroke-width="4.0" stroke-linejoin="round" stroke-linecap="butt" d="m0 341.36124c19.19698 6.592621 78.95574 42.961517 115.18188 39.555725c36.226143 -3.4058228 64.40116 -56.58432 102.174965 -59.99057c37.773804 -3.4062195 103.723236 32.960938 124.467865 39.55313" fill-rule="evenodd"/></g></svg>