<svg version="1.1" viewBox="0.0 0.0 582.8582677165355 495.37007874015745" fill="none" stroke="none" stroke-linecap="square" stroke-miterlimit="10" xmlns:xlink="http://www.w3.org/1999/xlink" xmlns="http://www.w3.org/2000/svg"><clipPath id="p.0"><path d="m0 0l582.8583 0l0 495.3701l-582.8583 0l0 -495.3701z" clip-rule="nonzero"/></clipPath><g clip-path="url(#p.0)"><path fill="#000000" fill-opacity="0.0" d="m0 0l582.8583 0l0 495.3701l-582.8583 0z" fill-rule="evenodd"/><path fill="#000000" fill-opacity="0.0" d="m57.335957 142.12202l0 0c0 -35.53248 28.804768 -64.33725 64.33725 -64.33725l336.55383 0c17.063293 0 33.427734 6.7783737 45.493317 18.843948c12.065582 12.065567 18.843964 28.43 18.843964 45.4933l0 257.34125c0 35.53247 -28.80478 64.33725 -64.33728 64.33725l-336.55383 0l0 0c-35.53248 0 -64.33725 -28.80478 -64.33725 -64.33725z" fill-rule="evenodd"/><path stroke="#000000" stroke-width="24.0" stroke-linejoin="round" stroke-linecap="butt" d="m57.335957 142.12202l0 0c0 -35.53248 28.804768 -64.33725 64.33725 -64.33725l336.55383 0c17.063293 0 33.427734 6.7783737 45.493317 18.843948c12.065582 12.065567 18.843964 28.43 18.843964 45.4933l0 257.34125c0 35.53247 -28.80478 64.33725 -64.33728 64.33725l-336.55383 0l0 0c-35.53248 0 -64.33725 -28.80478 -64.33725 -64.33725z" fill-rule="evenodd"/><path fill="#000000" d="m212.97615 198.07086l68.69292 0l0 64.62991l-68.69292 0z" fill-rule="evenodd"/><path stroke="#000000" stroke-width="1.0" stroke-linejoin="round" stroke-linecap="butt" d="m212.97615 198.07086l68.69292 0l0 64.62991l-68.69292 0z" fill-rule="evenodd"/><path fill="#000000" d="m300.84415 198.07086l68.69293 0l0 64.62991l-68.69293 0z" fill-rule="evenodd"/><path stroke="#000000" stroke-width="1.0" stroke-linejoin="round" stroke-linecap="butt" d="m300.84415 198.07086l68.69293 0l0 64.62991l-68.69293 0z" fill-rule="evenodd"/><path fill="#000000" d="m388.7122 198.07086l68.6929 0l0 64.62991l-68.6929 0z" fill-rule="evenodd"/><path stroke="#000000" stroke-width="1.0" stroke-linejoin="round" stroke-linecap="butt" d="m388.7122 198.07086l68.6929 0l0 64.62991l-68.6929 0z" fill-rule="evenodd"/><path fill="#000000" d="m125.80315 276.4502l68.69292 0l0 64.62991l-68.69292 0z" fill-rule="evenodd"/><path stroke="#000000" stroke-width="1.0" stroke-linejoin="round" stroke-linecap="butt" d="m125.80315 276.4502l68.69292 0l0 64.62991l-68.69292 0z" fill-rule="evenodd"/><path fill="#000000" d="m213.67116 276.4502l68.69292 0l0 64.62991l-68.69292 0z" fill-rule="evenodd"/><path stroke="#000000" stroke-width="1.0" stroke-linejoin="round" stroke-linecap="butt" d="m213.67116 276.4502l68.69292 0l0 64.62991l-68.69292 0z" fill-rule="evenodd"/><path fill="#000000" d="m301.53918 276.4502l68.6929 0l0 64.62991l-68.6929 0z" fill-rule="evenodd"/><path stroke="#000000" stroke-width="1.0" stroke-linejoin="round" stroke-linecap="butt" d="m301.53918 276.4502l68.6929 0l0 64.62991l-68.6929 0z" fill-rule="evenodd"/><path fill="#000000" d="m389.4072 276.4502l68.6929 0l0 64.62991l-68.6929 0z" fill-rule="evenodd"/><path stroke="#000000" stroke-width="1.0" stroke-linejoin="round" stroke-linecap="butt" d="m389.4072 276.4502l68.6929 0l0 64.62991l-68.6929 0z" fill-rule="evenodd"/><path fill="#000000" d="m125.80315 354.82953l68.69292 0l0 64.62991l-68.69292 0z" fill-rule="evenodd"/><path stroke="#000000" stroke-width="1.0" stroke-linejoin="round" stroke-linecap="butt" d="m125.80315 354.82953l68.69292 0l0 64.62991l-68.69292 0z" fill-rule="evenodd"/><path fill="#000000" d="m213.67116 354.82953l68.69292 0l0 64.62991l-68.69292 0z" fill-rule="evenodd"/><path stroke="#000000" stroke-width="1.0" stroke-linejoin="round" stroke-linecap="butt" d="m213.67116 354.82953l68.69292 0l0 64.62991l-68.69292 0z" fill-rule="evenodd"/><path fill="#000000" d="m301.53918 354.82953l68.6929 0l0 64.62991l-68.6929 0z" fill-rule="evenodd"/><path stroke="#000000" stroke-width="1.0" stroke-linejoin="round" stroke-linecap="butt" d="m301.53918 354.82953l68.6929 0l0 64.62991l-68.6929 0z" fill-rule="evenodd"/><path fill="#000000" d="m67.514435 89.88714l445.73227 0l0 64.62992l-445.73227 0z" fill-rule="evenodd"/><path stroke="#000000" stroke-width="1.0" stroke-linejoin="round" stroke-linecap="butt" d="m67.514435 89.88714l445.73227 0l0 64.62992l-445.73227 0z" fill-rule="evenodd"/><path fill="#000000" d="m369.7743 24.0l61.637787 0l0 89.291336l-61.637787 0z" fill-rule="evenodd"/><path stroke="#ffffff" stroke-width="8.0" stroke-linejoin="round" stroke-linecap="butt" d="m369.7743 24.0l61.637787 0l0 89.291336l-61.637787 0z" fill-rule="evenodd"/><path fill="#000000" d="m145.77428 24.0l61.637802 0l0 89.291336l-61.637802 0z" fill-rule="evenodd"/><path stroke="#ffffff" stroke-width="8.0" stroke-linejoin="round" stroke-linecap="butt" d="m145.77428 24.0l61.637802 0l0 89.291336l-61.637802 0z" fill-rule="evenodd"/></g></svg>