<svg version="1.1" viewBox="0.0 0.0 257.73490813648294 306.20734908136484" fill="none" stroke="none" stroke-linecap="square" stroke-miterlimit="10" xmlns:xlink="http://www.w3.org/1999/xlink" xmlns="http://www.w3.org/2000/svg"><clipPath id="p.0"><path d="m0 0l257.7349 0l0 306.20734l-257.7349 0l0 -306.20734z" clip-rule="nonzero"/></clipPath><g clip-path="url(#p.0)"><path fill="#000000" fill-opacity="0.0" d="m0 0l257.7349 0l0 306.20734l-257.7349 0z" fill-rule="evenodd"/><path fill="#000000" d="m80.39501 163.7781l0 0c0 -11.425705 9.262367 -20.68808 20.68808 -20.68808l82.749825 0l0 0c5.4868164 0 10.748917 2.1796417 14.628677 6.0594025c3.879776 3.8797607 6.0594025 9.141861 6.0594025 14.628677l0 84.356125c0 11.425705 -9.26236 20.688095 -20.68808 20.688095l-82.749825 0l0 0c-11.425713 0 -20.68808 -9.26239 -20.68808 -20.688095z" fill-rule="evenodd"/><path stroke="#000000" stroke-width="1.0" stroke-linejoin="round" stroke-linecap="butt" d="m80.39501 163.7781l0 0c0 -11.425705 9.262367 -20.68808 20.68808 -20.68808l82.749825 0l0 0c5.4868164 0 10.748917 2.1796417 14.628677 6.0594025c3.879776 3.8797607 6.0594025 9.141861 6.0594025 14.628677l0 84.356125c0 11.425705 -9.26236 20.688095 -20.68808 20.688095l-82.749825 0l0 0c-11.425713 0 -20.68808 -9.26239 -20.68808 -20.688095z" fill-rule="evenodd"/><path fill="#ffffff" d="m94.461685 160.92241l94.3307 0l0 60.62993l-94.3307 0z" fill-rule="evenodd"/><path stroke="#000000" stroke-width="1.0" stroke-linejoin="round" stroke-linecap="butt" d="m94.461685 160.92241l94.3307 0l0 60.62993l-94.3307 0z" fill-rule="evenodd"/><path fill="#ffffff" d="m102.48797 242.26337l0 0c0 -4.183441 2.9683228 -7.5747986 6.629921 -7.5747986l0 0c1.7583694 0 3.4447098 0.7980499 4.6880646 2.2186127c1.2433548 1.4205475 1.9418564 3.347229 1.9418564 5.356186l0 0c0 4.1834564 -2.9683151 7.5747986 -6.629921 7.5747986l0 0c-3.6615982 0 -6.629921 -3.3913422 -6.629921 -7.5747986z" fill-rule="evenodd"/><path stroke="#000000" stroke-width="1.0" stroke-linejoin="round" stroke-linecap="butt" d="m102.48797 242.26337l0 0c0 -4.183441 2.9683228 -7.5747986 6.629921 -7.5747986l0 0c1.7583694 0 3.4447098 0.7980499 4.6880646 2.2186127c1.2433548 1.4205475 1.9418564 3.347229 1.9418564 5.356186l0 0c0 4.1834564 -2.9683151 7.5747986 -6.629921 7.5747986l0 0c-3.6615982 0 -6.629921 -3.3913422 -6.629921 -7.5747986z" fill-rule="evenodd"/><path fill="#ffffff" d="m130.48537 242.26337l0 0c0 -4.183441 2.9683228 -7.5747986 6.6299133 -7.5747986l0 0c1.7583771 0 3.4447174 0.7980499 4.6880646 2.2186127c1.2433624 1.4205475 1.941864 3.347229 1.941864 5.356186l0 0c0 4.1834564 -2.9683228 7.5747986 -6.6299286 7.5747986l0 0c-3.6615906 0 -6.6299133 -3.3913422 -6.6299133 -7.5747986z" fill-rule="evenodd"/><path stroke="#000000" stroke-width="1.0" stroke-linejoin="round" stroke-linecap="butt" d="m130.48537 242.26337l0 0c0 -4.183441 2.9683228 -7.5747986 6.6299133 -7.5747986l0 0c1.7583771 0 3.4447174 0.7980499 4.6880646 2.2186127c1.2433624 1.4205475 1.941864 3.347229 1.941864 5.356186l0 0c0 4.1834564 -2.9683228 7.5747986 -6.6299286 7.5747986l0 0c-3.6615906 0 -6.6299133 -3.3913422 -6.6299133 -7.5747986z" fill-rule="evenodd"/><path fill="#ffffff" d="m158.48276 242.26337l0 0c0 -4.183441 2.9683228 -7.5747986 6.6299286 -7.5747986l0 0c1.7583618 0 3.4447021 0.7980499 4.6880646 2.2186127c1.2433472 1.4205475 1.9418488 3.347229 1.9418488 5.356186l0 0c0 4.1834564 -2.9683075 7.5747986 -6.6299133 7.5747986l0 0c-3.6616058 0 -6.6299286 -3.3913422 -6.6299286 -7.5747986z" fill-rule="evenodd"/><path stroke="#000000" stroke-width="1.0" stroke-linejoin="round" stroke-linecap="butt" d="m158.48276 242.26337l0 0c0 -4.183441 2.9683228 -7.5747986 6.6299286 -7.5747986l0 0c1.7583618 0 3.4447021 0.7980499 4.6880646 2.2186127c1.2433472 1.4205475 1.9418488 3.347229 1.9418488 5.356186l0 0c0 4.1834564 -2.9683075 7.5747986 -6.6299133 7.5747986l0 0c-3.6616058 0 -6.6299286 -3.3913422 -6.6299286 -7.5747986z" fill-rule="evenodd"/><path fill="#000000" fill-opacity="0.0" d="m97.77214 145.76617l0 -36.566933" fill-rule="evenodd"/><path stroke="#000000" stroke-width="16.0" stroke-linejoin="round" stroke-linecap="butt" d="m97.77214 145.76617l0 -36.566933" fill-rule="evenodd"/><path fill="#000000" d="m84.21654 97.973755l0 0c0 -6.201248 5.823822 -11.228348 13.007874 -11.228348l0 0c7.1840515 0 13.007874 5.0270996 13.007874 11.228348l0 0c0 6.2012405 -5.823822 11.228348 -13.007874 11.228348l0 0c-7.1840515 0 -13.007874 -5.0271072 -13.007874 -11.228348z" fill-rule="evenodd"/><path stroke="#000000" stroke-width="8.0" stroke-linejoin="round" stroke-linecap="butt" d="m84.21654 97.973755l0 0c0 -6.201248 5.823822 -11.228348 13.007874 -11.228348l0 0c7.1840515 0 13.007874 5.0270996 13.007874 11.228348l0 0c0 6.2012405 -5.823822 11.228348 -13.007874 11.228348l0 0c-7.1840515 0 -13.007874 -5.0271072 -13.007874 -11.228348z" fill-rule="evenodd"/><path fill="#000000" fill-opacity="0.0" d="m48.473755 85.01375c21.67044 -26.0103 69.03583 -36.434578 99.30971 -21.280838" fill-rule="evenodd"/><path stroke="#000000" stroke-width="12.0" stroke-linejoin="round" stroke-linecap="butt" d="m48.473755 85.01375c21.67044 -26.0103 69.03583 -36.434578 99.30971 -21.280838" fill-rule="evenodd"/><path fill="#000000" fill-opacity="0.0" d="m21.279528 59.003544c35.796036 -35.796043 103.69713 -52.21593 148.96588 -29.556433" fill-rule="evenodd"/><path stroke="#000000" stroke-width="12.0" stroke-linejoin="round" stroke-linecap="butt" d="m21.279528 59.003544c35.796036 -35.796043 103.69713 -52.21593 148.96588 -29.556433" fill-rule="evenodd"/></g></svg>